<?xml version="1.0" encoding="UTF-8"?>
<svg version="1.1" xmlns="http://www.w3.org/2000/svg" width="304" height="304">
<path d="M0 0 C0.68803711 0.25265625 1.37607422 0.5053125 2.08496094 0.765625 C38.39109263 14.37417046 67.86039729 40.96875123 84.09863281 76.39697266 C88.87470789 87.27392013 92.81336241 98.30103306 95 110 C95.17587646 110.939646 95.35175293 111.87929199 95.53295898 112.84741211 C96.95594139 121.15942629 97.34938861 129.26333594 97.3125 137.6875 C97.30831055 139.00242432 97.30412109 140.31734863 97.29980469 141.67211914 C97.18321001 151.75321705 96.27826096 161.19357239 94 171 C93.74476563 172.21429688 93.48953125 173.42859375 93.2265625 174.6796875 C84.68035034 211.13829903 60.54339045 243.4083539 29.02685547 263.24169922 C-1.23804649 281.75539382 -40.62674841 291.30100593 -75.82226562 283.54003906 C-117.21218774 273.2760808 -151.5863121 251.85415701 -174.39453125 215.203125 C-188.51788109 191.68006307 -195.43498426 165.63499459 -195.3125 138.25 C-195.30758545 136.93813721 -195.3026709 135.62627441 -195.29760742 134.2746582 C-195.17696393 124.24392541 -194.41483328 114.73707898 -192 105 C-191.82839355 104.29665527 -191.65678711 103.59331055 -191.47998047 102.86865234 C-181.99287704 65.20001916 -158.35374702 32.60479043 -124.99609375 12.57421875 C-117.26570079 8.04096362 -109.42710349 4.08993794 -101 1 C-99.24429688 0.35417969 -99.24429688 0.35417969 -97.453125 -0.3046875 C-66.13814304 -11.28442184 -31.19363442 -11.4595081 0 0 Z " fill="#FBFBFC" transform="translate(199,15)"/>
<path d="M0 0 C0.70253906 0.37769531 1.40507812 0.75539063 2.12890625 1.14453125 C10.66569133 6.156823 16.9849224 14.5778825 20 24 C20.1875 26.9375 20.1875 26.9375 20 29 C21.9490625 29.3403125 21.9490625 29.3403125 23.9375 29.6875 C33.35292419 31.7896859 41.5265006 37.27872403 47.125 45.125 C53.06029743 54.60585668 55.45327586 63.80122718 54 75 C52.34996622 80.72945308 50.31308875 86.03036688 47 91 C47.23311614 95.07953245 49.05961969 98.31191935 50.96484375 101.83984375 C54.90629191 110.06482802 55.34091748 118.66027505 53.125 127.484375 C48.47228422 140.52422318 40.34052766 149.36974764 27.8984375 155.3203125 C25.21481946 156.28111402 22.81243098 156.2812431 20 156 C19.95875 157.093125 19.9175 158.18625 19.875 159.3125 C18.71772841 168.37779413 12.97309492 176.35652064 6 182 C-3.58682989 189.19012241 -13.09360398 191.12783945 -25 190 C-36.22033063 187.87962256 -44.56743056 182.73870095 -51.72265625 173.87890625 C-57.50063305 165.37980276 -59.37611514 155.59719717 -59.5625 145.5 C-59.61212891 144.69691406 -59.66175781 143.89382812 -59.71289062 143.06640625 C-59.79163028 138.4395141 -59.21536948 135.7419514 -56.04516602 132.29638672 C-55.40914963 131.6041803 -54.77313324 130.91197388 -54.11784363 130.1987915 C-50.32355085 126.25947388 -46.43872455 122.42025875 -42.5234375 118.6015625 C-40.69992189 116.80529532 -38.8770238 115.00840109 -37.0546875 113.2109375 C-34.21230033 110.41178056 -31.36753332 107.61547627 -28.50976562 104.83203125 C-25.73180244 102.12098391 -22.97030319 99.39402021 -20.2109375 96.6640625 C-19.36187836 95.84394684 -18.51281921 95.02383118 -17.63803101 94.17886353 C-11.45936076 88.0281126 -6.82217674 81.83633379 -5.3359375 73.09375 C-5.43333612 64.13307697 -6.19843911 56.71965794 -12.83203125 50.19921875 C-14.81552136 48.62259841 -16.82671315 47.29990989 -19 46 C-19.92619141 45.38125 -19.92619141 45.38125 -20.87109375 44.75 C-27.39306104 40.84495514 -34.51836744 40.93624171 -41.78125 42.66015625 C-49.17735416 45.23319851 -53.00829958 49.26018841 -56.62890625 56.05859375 C-58.94141955 61.63870834 -58.47061024 67.67247248 -58.52734375 73.61328125 C-58.54925781 74.51949219 -58.57117188 75.42570312 -58.59375 76.359375 C-58.60083984 77.17889648 -58.60792969 77.99841797 -58.61523438 78.84277344 C-59.08847702 81.49605516 -59.89014374 82.37173096 -62 84 C-64.23046875 84.5703125 -64.23046875 84.5703125 -67 84 C-69.66155802 82.20188021 -71.96166396 80.05648616 -74.3125 77.875 C-75.65118635 76.68099276 -76.99101805 75.48826832 -78.33203125 74.296875 C-79.55491439 73.19816915 -80.77759519 72.09923801 -82 71 C-87.16313757 66.22845076 -87.16313757 66.22845076 -93.8125 64.875 C-96.96776776 65.78768765 -96.96776776 65.78768765 -99 67.625 C-100.53364874 71.26741576 -100.1519794 73.22406752 -99 77 C-96.45971673 80.19910985 -93.6798175 83.16009125 -90 85 C-90 85.66 -90 86.32 -90 87 C-89.42636719 87.26296875 -88.85273437 87.5259375 -88.26171875 87.796875 C-84.31760215 89.89495429 -80.99352579 92.69136623 -78 96 C-77 99.4375 -77 99.4375 -77 102 C-78.625 103.625 -78.625 103.625 -81 105 C-86.6172137 103.89102219 -89.74864482 100.87039304 -93.6875 97 C-94.81476525 95.91495922 -95.94361534 94.831562 -97.07421875 93.75 C-97.56494873 93.27046875 -98.05567871 92.7909375 -98.5612793 92.296875 C-100.17774387 90.77672675 -100.17774387 90.77672675 -103 89 C-103 88.34 -103 87.68 -103 87 C-103.61359375 86.7421875 -104.2271875 86.484375 -104.859375 86.21875 C-108.5227201 84.13304987 -109.72792979 80.90707277 -111 77 C-111.75229605 72.11007567 -111.61859323 68.31451061 -109.5 63.8125 C-101.43478261 54.73913043 -101.43478261 54.73913043 -95.5 52.9375 C-88.10656706 53.06952559 -83.68334358 54.75313895 -78.0546875 59.3671875 C-75.47675386 61.41581157 -72.75400827 63.19780195 -70 65 C-69.79246094 64.01 -69.58492187 63.02 -69.37109375 62 C-67.48610675 53.67569501 -65.55142151 47.83089857 -59 42 C-58.35675781 41.36449219 -57.71351563 40.72898438 -57.05078125 40.07421875 C-49.53310172 32.94054642 -41.19625087 30.70632146 -31 30.85546875 C-19.3373282 31.41734226 -10.70013292 34.73266735 -2.625 43.375 C5.39068733 52.99059266 8.18101767 63.46822192 7.26806641 75.91601562 C5.2344746 91.72543243 -8.05228069 102.23619342 -18.94921875 112.484375 C-21.37214688 114.78945267 -23.79216985 117.09752816 -26.21069336 119.40722656 C-27.86877274 120.97557843 -29.53988909 122.53025565 -31.22338867 124.07128906 C-42.42186305 133.56249317 -42.42186305 133.56249317 -47.25556946 146.71966553 C-46.93439036 156.11086877 -43.94917717 163.61684719 -37.64453125 170.49609375 C-31.26500717 176.33010033 -24.52803942 177.38772685 -16.1640625 177.265625 C-8.8194694 176.64904188 -3.66041643 174.12399034 1.4375 168.8125 C5.91315438 163.31719049 7.60344658 158.07328902 8.5 151.125 C9.04247565 147.73452718 9.36940662 147.02812188 12 145 C13.91015625 144.6640625 13.91015625 144.6640625 16.0625 144.625 C23.61504274 143.97413046 29.77550064 140.70812248 34.9375 135.1875 C40.10253625 128.64593286 41.68271945 122.50626154 41.4921875 114.17578125 C40.55707023 108.14204836 37.74557811 101.68770878 33.33203125 97.3671875 C32 96 32 96 31.5 92.6875 C32.03219496 88.76256215 32.99593224 87.53803451 35.62109375 84.7109375 C40.13414428 79.11117508 41.80879256 71.9441252 41.5078125 64.87109375 C40.22874893 57.63946513 36.87432072 51.01445043 31.0625 46.4375 C26.20969733 43.30665957 21.53779787 41.05976877 15.75 40.5 C12 40 12 40 10.28515625 38.75 C8.65107529 36.52486848 8.70084247 35.23965453 8.6875 32.5 C8.19498988 25.78216193 5.43427656 19.00014679 0.26953125 14.48828125 C-1.11854575 13.60136269 -2.55521656 12.79119093 -4 12 C-4 11.34 -4 10.68 -4 10 C-13.38580561 7.10071973 -22.09405205 5.46438378 -31.3125 9.75 C-37.25766116 13.16453248 -40.7036487 16.25508131 -44 22.25 C-46.58667883 26.86222628 -46.58667883 26.86222628 -50.375 28.125 C-53 28 -53 28 -54.5625 26.3125 C-56 24 -56 24 -55.7421875 21.62109375 C-53.30157912 13.00189256 -46.09150107 6.0769857 -39 1 C-27.43195205 -4.69769526 -11.55202713 -6.70017574 0 0 Z " fill="#895BAF" transform="translate(216,63)"/>
<path d="M0 0 C0 0.66 0 1.32 0 2 C0.58136719 2.27199219 1.16273437 2.54398437 1.76171875 2.82421875 C10.52065998 7.42533796 15.21923693 15.06863216 19 24 C19.99745478 28.38416172 20.22107333 32.69796915 20.3125 37.1875 C20.36857422 39.00314453 20.36857422 39.00314453 20.42578125 40.85546875 C20 44 20 44 18.1484375 45.96484375 C16 47 16 47 13.3125 46.375 C12.219375 45.92125 11.12625 45.4675 10 45 C1.99120456 41.68821183 -5.82280136 40.23033937 -14.22265625 43.1015625 C-20.97425226 46.23055495 -26.94859978 49.85138768 -29.796875 57 C-30.45656781 59.10650881 -30.45656781 59.10650881 -31 62 C-31.66 62 -32.32 62 -33 62 C-32.44177251 79.80745679 -25.98067928 88.21874677 -13.75390625 100.34375 C-13.09792953 100.99831177 -12.44195282 101.65287354 -11.76609802 102.32727051 C-9.70059855 104.38723823 -7.63162405 106.44367366 -5.5625 108.5 C-4.14885566 109.9086205 -2.73544214 111.31747267 -1.32226562 112.7265625 C2.11583149 116.15372133 5.55704656 119.57772019 9 123 C14.94672393 118.09071703 20.3106889 112.74067379 25.6953125 107.2265625 C27.08620957 105.81538821 28.47712168 104.40422838 29.86892509 102.99394798 C33.27516682 99.54221439 36.67712784 96.08648491 40.06298828 92.61474609 C41.9741505 90.65572352 43.89174416 88.70345902 45.81710815 86.75839233 C47.62464453 84.93206272 49.42248233 83.09607274 51.20950317 81.24966431 C52.02740326 80.42815887 52.84530334 79.60665344 53.68798828 78.76025391 C54.40189728 78.03222565 55.11580627 77.30419739 55.85134888 76.55410767 C58.46888079 74.66086107 59.83607188 74.54037127 63 75 C65.40311451 77.23738248 65.96341425 78.46340904 66.1875 81.75 C66.125625 82.4925 66.06375 83.235 66 84 C65.38125 84.2475 64.7625 84.495 64.125 84.75 C61.86253506 85.82143729 61.86253506 85.82143729 61 88 C59.73577236 90.52845528 58.47154472 90.76422764 56 92 C54.87483915 93.83284443 54.87483915 93.83284443 54 96 C51.60655738 100.78688525 51.60655738 100.78688525 48.6875 101.8125 C45.07085939 103.4105505 43.76798345 105.81006561 41.53125 108.98828125 C39.39459035 111.79537237 36.72629424 113.77445368 34 116 C32.9784934 117.1267024 31.98060662 118.27502648 31 119.4375 C27.4398043 123.56192315 23.76421146 127.56194141 20 131.5 C19.41863281 132.13607178 18.83726562 132.77214355 18.23828125 133.42749023 C17.66464844 134.01860596 17.09101563 134.60972168 16.5 135.21875 C15.9946875 135.75435547 15.489375 136.28996094 14.96875 136.84179688 C11.61856849 138.81268739 9.84288303 138.7093472 6 138 C2.47793404 135.49065786 -0.43797411 132.44640579 -3.44140625 129.34765625 C-4.32730942 128.45896347 -5.21321259 127.57027069 -6.1259613 126.65464783 C-7.99800338 124.76984152 -9.86200967 122.8799883 -11.71557617 120.97729492 C-14.53481379 118.08396879 -17.38642172 115.22447206 -20.24023438 112.36523438 C-22.05885935 110.52759181 -23.87596655 108.68844568 -25.69140625 106.84765625 C-26.53530411 105.99728287 -27.37920197 105.14690948 -28.24867249 104.27076721 C-38.00311445 94.24284946 -44.96787255 83.74843959 -45.4375 69.3125 C-44.90186925 57.39039624 -39.81037581 47.33597271 -31.25 39.125 C-26.55110376 35.10143681 -21.87732353 32.81172542 -16 31 C-15.01 30.67 -14.02 30.34 -13 30 C-10.56404245 29.90380655 -8.12535133 29.87017735 -5.6875 29.875 C-4.39199219 29.87242188 -3.09648438 29.86984375 -1.76171875 29.8671875 C1.59562923 29.98572315 4.7083127 30.35697271 8 31 C6.4782559 23.1159163 4.3587482 17.17487378 -2 12 C-11.42144247 6.5346101 -20.4715011 6.20791508 -31 8 C-31 8.66 -31 9.32 -31 10 C-31.680625 10.165 -32.36125 10.33 -33.0625 10.5 C-39.22309135 13.64583388 -43.33402224 19.33138542 -45.453125 25.84375 C-46.2956578 29.16573646 -46.92295518 32.51646709 -47.47265625 35.8984375 C-48 38 -48 38 -50 40 C-51.299375 40.0825 -52.59875 40.165 -53.9375 40.25 C-60.84008534 40.90685893 -66.94696496 44.05224203 -71.92578125 48.859375 C-77.28292886 55.50596013 -79.65056084 63.01576947 -79.34765625 71.5234375 C-78.47835693 77.71597426 -75.5750956 82.41182895 -71.6875 87.1875 C-69.66776678 89.79311003 -69.03055002 90.63339975 -68.75 94 C-70.21519612 97.51647068 -72.22827297 100.09518278 -74.56640625 103.078125 C-78.95240777 108.95799625 -78.57030429 115.97529956 -78 123 C-76.50297902 131.15184535 -72.44868388 136.44797393 -65.875 141.3125 C-61.76830183 143.48987688 -57.34009585 143.84312238 -52.76953125 144.3125 C-49.36711943 145.15710434 -48.10877558 146.22555102 -46 149 C-45.34765625 151.26171875 -45.34765625 151.26171875 -45.0625 153.6875 C-43.70495062 161.63384507 -40.21285551 167.82311186 -33.80859375 172.78125 C-28.80672859 176.15183732 -23.9586668 177.79872818 -17.94921875 177.60546875 C-9.10013141 175.7887687 0.18245957 170.30074456 5.7109375 163.15625 C7.62678037 159.95156738 8.96911966 156.62872716 10.17578125 153.1015625 C11 151 11 151 13 149 C16.73296326 148.61713197 17.77626323 148.85084215 21 151 C22.46605795 159.79634769 18.39096587 166.61032573 14 174 C6.98782622 183.6522153 -2.50949018 187.75039257 -14 190 C-24.65377451 191.25806904 -34.579706 187.5647835 -43.203125 181.43359375 C-51.78903032 174.37152277 -55.80369744 167.03485984 -57 156 C-58.299375 155.938125 -59.59875 155.87625 -60.9375 155.8125 C-70.69450952 154.66731109 -78.01942668 148.50657327 -84 141 C-90.25434865 130.44496717 -92.14879362 121.12077042 -91 109 C-89.86750596 104.59883834 -88.02687593 100.87791693 -85.859375 96.9140625 C-84.53070917 93.95476133 -85.15124111 92.09190739 -86 89 C-86.99588138 87.29736409 -87.99306629 85.59536099 -89.01171875 83.90625 C-93.64248595 74.9741773 -92.86010343 63.99295784 -90.03515625 54.6640625 C-85.92229563 44.0792665 -77.64713937 35.61346219 -67.41015625 30.8984375 C-64.2192013 29.70894052 -61.39144464 29.22118117 -58 29 C-57.9175 27.845 -57.835 26.69 -57.75 25.5 C-56.46252937 15.73238949 -50.25142334 8.35253106 -42.83203125 2.203125 C-30.63437403 -6.51873963 -12.92189424 -8.61459616 0 0 Z " fill="#2D7DA6" transform="translate(125,63)"/>
<path d="M0 0 C0.99 0.33 1.98 0.66 3 1 C2.34560692 1.59776749 2.34560692 1.59776749 1.67799377 2.20761108 C-2.900042 6.40627057 -7.41441063 10.66623423 -11.89868164 14.96484375 C-13.57427094 16.55551762 -15.26487756 18.13053915 -16.97094727 19.68847656 C-28.56338589 29.7781655 -28.56338589 29.7781655 -33.55421448 43.71157837 C-33.61601643 47.2005776 -33.42086506 50.53462854 -33 54 C-33.33 54 -33.66 54 -34 54 C-34.19071682 50.99696682 -34.32838545 48.00621732 -34.4375 45 C-34.49615234 44.16082031 -34.55480469 43.32164062 -34.61523438 42.45703125 C-34.74033723 37.84609731 -34.37834396 34.82089432 -31.34375 31.25 C-29.91708099 29.81193789 -28.46506003 28.39893039 -27 27 C-25.96108853 25.95236822 -24.9256332 24.90130277 -23.89282227 23.84765625 C-20.31072346 20.20335435 -16.68828921 16.60075118 -13.0625 13 C-11.79338627 11.7359115 -10.52450411 10.47159044 -9.25585938 9.20703125 C-6.1732368 6.13533276 -3.08749572 3.06679992 0 0 Z " fill="#9269B3" transform="translate(191,164)"/>
<path d="M0 0 C-2.84391994 1.06646998 -4.43436525 0.9301913 -7.5 0.4375 C-16.73946947 -0.85053013 -26.39705691 1.68145429 -34 7 C-37.91972861 10.41589106 -41.48048717 14.17938817 -45 18 C-45 13.70554555 -42.93642294 12.14214675 -40.1171875 9.0625 C-29.29069843 -1.48433806 -14.37292819 -5.22651934 0 0 Z " fill="#7CBBDA" transform="translate(118,60)"/>
<path d="M0 0 C1.87171875 0.00966797 1.87171875 0.00966797 3.78125 0.01953125 C7.4335886 0.18450033 10.91254508 0.47635048 14.5 1.1875 C14.995 2.1775 14.995 2.1775 15.5 3.1875 C14.90574219 3.1153125 14.31148437 3.043125 13.69921875 2.96875 C2.16096494 1.67675268 -8.04284921 1.23064448 -18.5625 6.8125 C-22.86110635 10.28796897 -26.67199274 14.20637245 -30.5 18.1875 C-30.5 13.88875305 -28.4423012 12.27939263 -25.62890625 9.1875 C-18.47529442 2.46704265 -9.69018127 -0.1101157 0 0 Z " fill="#D0B9E6" transform="translate(182.5,92.8125)"/>
<path d="M0 0 C0.66 0.33 1.32 0.66 2 1 C-1.63 4.63 -5.26 8.26 -9 12 C-9 8.26071501 -8.08040398 7.59097747 -5.625 4.875 C-4.99851562 4.17117187 -4.37203125 3.46734375 -3.7265625 2.7421875 C-2 1 -2 1 0 0 Z " fill="#579EC3" transform="translate(82,66)"/>
<path d="M0 0 C0.66 0.33 1.32 0.66 2 1 C-1.63 4.63 -5.26 8.26 -9 12 C-9 7.8407692 -6.75316432 5.85455565 -4 3 C-1.6875 1.125 -1.6875 1.125 0 0 Z " fill="#EBE0F5" transform="translate(182,73)"/>
<path d="M0 0 C0.66 0 1.32 0 2 0 C0.61811547 3.21043882 -0.92421903 5.04936365 -3.625 7.25 C-4.57246094 8.03117187 -4.57246094 8.03117187 -5.5390625 8.828125 C-6.02117187 9.21484375 -6.50328125 9.6015625 -7 10 C-5.15014033 6.06048404 -2.92434659 3.21678125 0 0 Z " fill="#CCE0EB" transform="translate(102,110)"/>
<path d="M0 0 C0.66 0.33 1.32 0.66 2 1 C0.88200014 2.33920838 -0.24461897 3.67122556 -1.375 5 C-2.00148438 5.7425 -2.62796875 6.485 -3.2734375 7.25 C-4.12808594 8.11625 -4.12808594 8.11625 -5 9 C-5.66 9 -6.32 9 -7 9 C-5.44499019 5.18315774 -2.96404505 2.80804268 0 0 Z " fill="#B7D6E6" transform="translate(90,73)"/>
<path d="M0 0 C0.66 0.33 1.32 0.66 2 1 C1.04882866 2.1725131 0.08882991 3.33787015 -0.875 4.5 C-1.40867188 5.1496875 -1.94234375 5.799375 -2.4921875 6.46875 C-2.98976562 6.9740625 -3.48734375 7.479375 -4 8 C-4.66 8 -5.32 8 -6 8 C-4.55746343 4.63408134 -2.66735273 2.48952921 0 0 Z " fill="#E9DEF2" transform="translate(167,108)"/>
<path d="M0 0 C-1.5830577 4.2742558 -4.50568404 6.26531794 -8 9 C-6.68994234 5.06982701 -4.75047804 0 0 0 Z " fill="#D5E3EB" transform="translate(57,109)"/>
</svg>
